<svg viewBox="0 0 214 208.04" version="1.1" xmlns="http://www.w3.org/2000/svg">
 <path d="m106.99 8.3776e-8c-25.593 0-46.338 20.744-46.338 46.333-24.337-7.907-50.463 5.427-58.37 29.764-7.9076 24.343 5.3952 50.463 29.732 58.373-15.041 20.702-10.448 49.676 10.255 64.718 20.702 15.041 49.676 10.448 64.718-10.255 15.041 20.702 44.046 25.296 64.749 10.255 20.702-15.041 25.265-44.014 10.224-64.718 24.337-7.9076 37.671-34.034 29.764-58.371-7.91-24.349-34.06-37.683-58.4-29.776 0-25.589-20.74-46.333-46.34-46.333z" fill="#d8261a"/>
 <path d="m96.638 36.736v18.32c-30.945 4.9586-54.587 31.776-54.587 64.123 0 21.356 10.295 40.306 26.2 52.149l12.381-16.664c-10.829-8.0553-17.82-20.949-17.82-35.485 0-20.847 14.419-38.325 33.827-42.989v81.225h20.728v-81.225c19.408 4.6741 33.859 22.153 33.859 42.989 0 14.537-7.0142 27.43-17.852 35.485l12.356 16.678c15.914-11.842 26.231-30.792 26.231-52.149 0-32.337-23.652-59.152-54.587-64.123v-18.317h-20.734z" fill="#fff"/>
</svg>
