<svg xmlns="http://www.w3.org/2000/svg" xml:space="preserve" x="0" y="0" version="1.1" viewBox="0 0 564 145">
	<switch>
		<g>
			<path
				d="M41.78 30.5c.67-17.1 15.18-30.55 32-30 16.44.53 29.89 14.28 30 31 15.75-6.02 33.15 1.72 39 16 6.34 15.47-2.47 34.69-20 40 9.74 14.91 5.3 34.89-9 44-13.4 8.53-31.94 5.27-42-8-13.79 15.39-36.6 15.19-48 3-8.97-9.58-10.24-25.89-2-39-15.73-5.42-24.46-21.59-21-36 3.95-16.4 22.91-27.23 41-21z"
				fill="#d8261a" />
			<path
				d="M64.22 22.5v13s-29 2-35 33c0 0-6 29 17 43l9-9s-17-13-14-30c0 0 5-21 23-24v55h15v-55s19 1 24 25c0 0 2 17-15 29l9 9s21-9 19-41c0 0-3-28-36-35l-1-13h-15z"
				fill="#fff" />
			<path d="M168.5 15.5h37v-3h16v3h38l-5 8h-32v4h35v47l-13 8h-16v-9h13v-37h-56v40l-15 6v-54h35v-5h-37z" />
			<path
				d="M187.5 38.5h17l4 6h11l3-6h18l-4 6h4l-5 8h-13v7h18l-5 8h-13v10l-17 6v-16h-18v-8h18v-7h-18v-8h4zm83-23h36v-3h19v3h35l-6 9h-84zm2 12 86 1v22l-16 9h-19v14l-16 9h-8v-9h7v-15h-34z" />
			<path
				d="M284.5 61.5h18l-14 22h-18zm44 0h18l16 21h-19zm43-43h7v-6h16v6h9l-5 9h-4v44h9l-4 11h-28v-11h8v-44h-8z" />
			<path
				d="M405.5 24.5v-12h15v10h5v-10h15v9l21-3v39l-10 10h-10v-9h5v-29h-6v36l-15 6v-40h-6v40h45l-6 11h-53v-49h-5v-8h5zm75-12h15l-2 4h15l-4 9h-15l-1 4h-16zm34 0h13l-2 8h4v-8h15v8h20l-4 9h-15v11h19l-6 10h-17l-2 5h9l13 27h-16l-10-19-10 19h-17l19-32h-19v-9h21v-12h-6l-1 5h-14zm-41 22h34l-5 8h-5v10h10l-5 10h-6v12h10l-5 8h-19v-21h-9v-9h9v-10h-9zM172.67 93.08h10.53l13.75 20.2v-20.2h10.63v36.51h-10.63l-13.67-20.04v20.04h-10.61V93.08zm50.97 18.63-9.69-1.02c.36-1.69.89-3.03 1.58-4 .69-.97 1.68-1.81 2.98-2.53.93-.51 2.21-.91 3.83-1.2 1.63-.28 3.39-.42 5.28-.42 3.04 0 5.48.17 7.32.51s3.38 1.05 4.61 2.13c.86.75 1.54 1.81 2.04 3.17.5 1.37.75 2.68.75 3.92v11.68c0 1.25.08 2.22.24 2.93.16.71.5 1.61 1.03 2.7h-9.51c-.38-.68-.63-1.2-.75-1.56-.12-.36-.23-.92-.35-1.68-1.33 1.28-2.65 2.19-3.96 2.74-1.79.73-3.88 1.1-6.25 1.1-3.15 0-5.55-.73-7.18-2.19-1.64-1.46-2.45-3.26-2.45-5.4 0-2.01.59-3.66 1.77-4.96 1.18-1.29 3.35-2.26 6.52-2.89 3.8-.76 6.27-1.3 7.4-1.61 1.13-.31 2.32-.71 3.59-1.21 0-1.25-.26-2.12-.77-2.62s-1.42-.75-2.71-.75c-1.66 0-2.91.27-3.74.8-.66.43-1.18 1.21-1.58 2.36zm8.79 5.33c-1.39.5-2.85.94-4.36 1.32-2.06.55-3.36 1.09-3.91 1.62-.56.55-.85 1.17-.85 1.87 0 .8.28 1.45.83 1.96.56.51 1.37.76 2.45.76 1.13 0 2.18-.27 3.15-.82.97-.55 1.66-1.21 2.07-2 .41-.79.61-1.81.61-3.08v-1.63zm15.99-13.9h9.44v4.31c1.41-1.76 2.84-3.02 4.28-3.77 1.44-.75 3.2-1.13 5.28-1.13 2.81 0 5 .83 6.59 2.5 1.58 1.67 2.38 4.25 2.38 7.73v16.81H266.2v-14.54c0-1.66-.31-2.83-.92-3.52-.61-.69-1.48-1.03-2.59-1.03-1.23 0-2.23.46-2.99 1.39-.76.93-1.15 2.6-1.15 5.01v12.7h-10.14v-26.46zm34.42 0H293v25.65c0 3.27-.24 5.59-.71 6.95-.47 1.36-1.35 2.46-2.63 3.31-1.28.85-3.1 1.27-5.48 1.27-1.96 0-4.39-.29-7.3-.87l1.52-7.37c.81.17 1.41.25 1.79.25.86 0 1.52-.29 1.97-.88.45-.59.67-1.76.67-3.52v-24.79zm0-10.06H293v6.97h-10.16v-6.97zm16.95 0h10.14v6.9h-10.14v-6.9zm0 10.06h10.14v26.45h-10.14v-26.45zm16.61 0h9.44v4.31c1.41-1.76 2.84-3.02 4.28-3.77 1.44-.75 3.2-1.13 5.28-1.13 2.81 0 5 .83 6.59 2.5 1.58 1.67 2.38 4.25 2.38 7.73v16.81h-10.19v-14.54c0-1.66-.31-2.83-.92-3.52-.61-.69-1.48-1.03-2.59-1.03-1.23 0-2.23.46-2.99 1.39-.76.93-1.15 2.6-1.15 5.01v12.7H316.4v-26.46zm52.42 0h9.49v24.98l.02 1.17c0 1.66-.35 3.24-1.06 4.74-.71 1.5-1.64 2.72-2.81 3.65-1.17.93-2.66 1.6-4.46 2.02-1.8.41-3.86.62-6.19.62-5.31 0-8.96-.8-10.94-2.39s-2.98-3.73-2.98-6.4c0-.33.02-.78.05-1.34l9.84 1.12c.25.91.63 1.54 1.15 1.89.75.51 1.68.77 2.81.77 1.46 0 2.55-.39 3.27-1.17.72-.78 1.08-2.14 1.08-4.08v-4.01c-1 1.18-1.99 2.03-2.99 2.57-1.56.83-3.25 1.24-5.06 1.24-3.54 0-6.39-1.54-8.57-4.63-1.54-2.19-2.32-5.09-2.32-8.69 0-4.12 1-7.25 2.99-9.41 1.99-2.16 4.6-3.24 7.82-3.24 2.06 0 3.76.35 5.09 1.05s2.59 1.85 3.75 3.46v-3.92zm-9.53 12.83c0 1.91.41 3.33 1.22 4.25.81.92 1.88 1.38 3.21 1.38 1.26 0 2.32-.48 3.18-1.43.85-.95 1.28-2.39 1.28-4.32 0-1.93-.45-3.4-1.34-4.42-.9-1.02-1.99-1.53-3.29-1.53s-2.33.47-3.1 1.41c-.78.93-1.16 2.48-1.16 4.66zm42.7-22.89h14.84l5.72 22.21 5.68-22.21h14.83v36.51h-9.24v-27.84l-7.12 27.84h-8.36l-7.11-27.84v27.84h-9.24V93.08zm76.95 25.8h-20.32c.18 1.63.62 2.84 1.32 3.64.98 1.15 2.26 1.72 3.83 1.72 1 0 1.94-.25 2.84-.75.55-.32 1.14-.87 1.77-1.67l9.99.92c-1.53 2.66-3.37 4.56-5.53 5.72-2.16 1.15-5.25 1.73-9.29 1.73-3.5 0-6.26-.49-8.27-1.48s-3.67-2.56-4.99-4.71c-1.32-2.15-1.98-4.68-1.98-7.58 0-4.13 1.32-7.48 3.97-10.04 2.65-2.56 6.3-3.83 10.97-3.83 3.79 0 6.77.57 8.96 1.72 2.19 1.14 3.86 2.8 5.01 4.98 1.15 2.17 1.72 5 1.72 8.49v1.14zm-10.31-4.85c-.2-1.96-.73-3.36-1.58-4.21-.86-.85-1.98-1.27-3.37-1.27-1.61 0-2.9.64-3.86 1.92-.61.8-1 1.98-1.17 3.56h9.98zm27.2-20.95v10.06h5.58v7.42h-5.58v9.37c0 1.13.11 1.87.32 2.24.33.56.91.84 1.74.84.75 0 1.79-.22 3.14-.65l.75 7c-2.51.55-4.85.82-7.02.82-2.52 0-4.38-.32-5.58-.97s-2.08-1.63-2.65-2.95c-.57-1.32-.86-3.45-.86-6.4v-9.3h-3.74v-7.42h3.74v-4.86l10.16-5.2zm10.5 10.06h9.49v4.33c.91-1.88 1.86-3.17 2.83-3.87.97-.71 2.17-1.06 3.6-1.06 1.49 0 3.13.46 4.91 1.39l-3.14 7.22c-1.2-.5-2.14-.75-2.84-.75-1.33 0-2.36.55-3.09 1.64-1.05 1.54-1.57 4.43-1.57 8.67v8.87h-10.19v-26.44zm22.12 13.3c0-4.03 1.36-7.36 4.08-9.97 2.72-2.61 6.4-3.92 11.03-3.92 5.3 0 9.3 1.54 12 4.61 2.17 2.47 3.26 5.52 3.26 9.14 0 4.07-1.35 7.4-4.05 10-2.7 2.6-6.43 3.9-11.19 3.9-4.25 0-7.69-1.08-10.31-3.24-3.21-2.68-4.82-6.19-4.82-10.52zm10.16-.02c0 2.36.48 4.1 1.43 5.23.95 1.13 2.15 1.69 3.6 1.69 1.46 0 2.66-.56 3.6-1.67.94-1.11 1.41-2.9 1.41-5.35 0-2.29-.47-4-1.42-5.12s-2.12-1.68-3.51-1.68c-1.48 0-2.7.57-3.66 1.71-.97 1.13-1.45 2.86-1.45 5.19z" />
			<path d="M288.5 36.5h53v14h-53z" fill="#fff" />
		</g>
	</switch>
</svg>